# AST/ASF file generated using VICON BodyLanguage
# -----------------------------------------------
:version 1.10
:name VICON
:units
  mass 1.0
  length 0.45
  angle deg
:documentation
   .ast/.asf automatically generated from VICON data using
   VICON BodyBuilder and BodyLanguage model FoxedUp or BRILLIANT.MOD
:root
   order TX TY TZ RX RY RZ
   axis XYZ
   position 0 0 0  
   orientation 0 0 0 
:bonedata
  begin
     id 1 
     name lhipjoint
     direction 0.722297 -0.617336 0.311742 
     length 2.6635 
     axis 0 0 0  XYZ
  end
  begin
     id 2 
     name lfemur
     direction 0.34202 -0.939693 0  
     length 7.39349  
     axis 0 0 20  XYZ
    dof rx ry rz
    limits (-160.0 20.0)
           (-70.0 70.0)
           (-60.0 70.0)
  end
  begin
     id 3 
     name ltibia
     direction 0.34202 -0.939693 0   
     length 7.36294   
     axis 0 0 20   XYZ
    dof rx
    limits (-10.0 170.0)
  end
  begin
     id 4 
     name lfoot
     direction 0.104879 -0.288152 0.951824   
     length 2.16981   
     axis -90 7.62852e-016 20   XYZ
    dof rx rz
    limits (-45.0 90.0)
           (-70.0 20.0)
  end
  begin
     id 5 
     name ltoes
     direction 1.53586e-011 -4.21895e-011 1   
     length 1.08218   
     axis -90 7.62852e-016 20   XYZ
    dof rx
    limits (-90.0 20.0)
  end
  begin
     id 6 
     name rhipjoint
     direction -0.75102 -0.589393 0.297631   
     length 2.78977  
     axis 0 0 0  XYZ 
  end
  begin
     id 7 
     name rfemur
     direction -0.34202 -0.939693 0   
     length 7.46076   
     axis 0 0 -20   XYZ
    dof rx ry rz
    limits (-160.0 20.0)
           (-70.0 70.0)
           (-70.0 60.0)
  end
  begin
     id 8 
     name rtibia
     direction -0.34202 -0.939693 0   
     length 7.31726   
     axis 0 0 -20   XYZ
    dof rx
    limits (-10.0 170.0)
 end
 begin
     id 9 
     name rfoot
     direction -0.107991 -0.296704 0.948844   
     length 2.09388  
     axis -90 -7.62852e-016 -20   XYZ
    dof rx rz
    limits (-45.0 90.0)
           (-20.0 70.0)
  end
  begin
     id 10 
     name rtoes
     direction -1.53559e-011 -4.21911e-011 1   
     length 1.04433   
     axis -90 -7.62852e-016 -20   XYZ
    dof rx
    limits (-90.0 20.0)
  end
  begin
     id 11 
     name lowerback
     direction 0.0165164 0.98272 0.184358   
     length 1.71896   
     axis 0 0 0   XYZ
    dof rx ry rz
    limits (-20.0 45.0)
           (-30.0 30.0)
           (-30.0 30.0)
  end
  begin
     id 12 
     name upperback
     direction -0.00887249 0.992297 0.123566   
     length 1.71504   
     axis 0 0 0   XYZ
    dof rx ry rz
    limits (-20.0 45.0)
           (-30.0 30.0)
           (-30.0 30.0)
  end
  begin
     id 13 
     name thorax
     direction -0.0157026 0.998908 0.0440032   
     length 1.77022   
     axis 0 0 0   XYZ
    dof rx ry rz
    limits (-20.0 45.0)
           (-30.0 30.0)
           (-30.0 30.0)
  end
  begin
     id 14 
     name lowerneck
     direction -0.0238856 0.998137 0.0561411   
     length 1.89341   
     axis 0 0 0   XYZ
    dof rx ry rz
    limits (-20.0 45.0)
           (-30.0 30.0)
           (-30.0 30.0)
  end
  begin
     id 15 
     name upperneck
     direction 0.0276574 0.952253 -0.304056   
     length 1.86999   
     axis 0 0 0   XYZ
    dof rx ry rz
    limits (-20.0 45.0)
           (-30.0 30.0)
           (-30.0 30.0)
  end
  begin
     id 16
     name head
     direction 0.00800083 0.994258 -0.106712  
     length 1.91492  
     axis 0 0 0   XYZ
    dof rx ry rz
    limits (-20.0 45.0)
           (-30.0 30.0)
           (-30.0 30.0)
  end
  begin
     id 17 
     name lclavicle
     direction 0.97203 0.225407 0.06595  
     length 3.34889  
     axis 0 0 0   XYZ
    dof ry rz
    limits (-20.0 10.0)
           (0.0 20.0)
  end
  begin
     id 18 
     name lhumerus
     direction 1 -4.48973e-011 2.20267e-027   
     length 4.85645   
     axis 180 -30 -90   XYZ
    dof rx ry rz
    limits (-60.0 90.0)
           (-90.0 90.0)
           (-90.0 90.0)
  end
  begin
     id 19
     name lradius
     direction 1 -4.4897e-011 4.60472e-027   
     length 2.79874   
     axis 180 -30 -90   XYZ
    dof rx
    limits (-10.0 170.0)
  end
  begin
     id 20
     name lwrist
     direction 1 -4.48952e-011 1.14928e-026   
     length 1.39937   
     axis -6.29373e-015 90 90   XYZ
    dof ry
    limits (-180.0 0.0)
 end
  begin
     id 21 
     name lhand
     direction 1 -4.48967e-011 2.29886e-026   
     length 0.573398   
     axis -1.46689e-014 90 90   XYZ
    dof rx rz
    limits (-90.0 90.0)
           (-45.0 45.0)
  end
  begin
     id 22 
     name lfingers
     direction 1 -4.48955e-011 4.59726e-026   
     length 0.462289   
     axis -2.93383e-014 90 90   XYZ
    dof rx
    limits (0.0 90.0)
  end
  begin
     id 23
     name lthumb
     direction 0.707107 -6.34866e-011 0.707107   
     length 0.663757   
     axis -90 45 5.69224e-014   XYZ
    dof rx rz
    limits (-45.0 45.0)
           (-45.0 45.0)
  end
  begin
     id 24 
     name rclavicle
     direction -0.981571 0.157346 0.108443   
     length 3.35257  
     axis 0 0 0   XYZ 
    dof ry rz
    limits (-10.0 20.0)
           (-20.0 0.0)
  end
  begin
     id 25 
     name rhumerus
     direction -1 -4.48967e-011 8.58308e-029  
     length 4.67018   
     axis 180 30 90   XYZ
    dof rx ry rz
    limits (-90.0 60.0)
           (-90.0 90.0)
           (-90.0 90.0)
  end
  begin
     id 26 
     name rradius
     direction -1 -4.48958e-011 4.52548e-027   
     length 2.65534   
     axis 180 30 90   XYZ
    dof rx
    limits (-10.0 170.0)
  end
  begin
     id 27 
     name rwrist
     direction -1 -4.48977e-011 1.14952e-026   
     length 1.32767   
     axis -6.29373e-015 -90 -90   XYZ
    dof ry
    limits (-180.0 0.0)
  end
  begin
     id 28
     name rhand
     direction -1 -4.48924e-011 2.29804e-026   
     length 0.594069   
     axis -1.46689e-014 -90 -90   XYZ
    dof rx rz
    limits (-90.0 90.0)
           (-45.0 45.0)
  end
  begin
     id 29
     name rfingers
     direction -1 -4.48998e-011 4.59888e-026   
     length 0.478954   
     axis -2.93383e-014 -90 -90   XYZ
    dof rx
    limits (0.0 90.0)
  end
  begin
     id 30
     name rthumb
     direction -0.707107 -6.34933e-011 0.707107   
     length 0.687685   
     axis -90 -45 -5.69224e-014   XYZ
    dof rx rz
    limits (-45.0 45.0)
           (-45.0 45.0)
  end
:hierarchy
  begin
    root lhipjoint rhipjoint lowerback
    lhipjoint lfemur
    lfemur ltibia
    ltibia lfoot
    lfoot ltoes
    rhipjoint rfemur
    rfemur rtibia
    rtibia rfoot
    rfoot rtoes
    lowerback upperback
    upperback thorax
    thorax lowerneck lclavicle rclavicle
    lowerneck upperneck
    upperneck head
    lclavicle lhumerus
    lhumerus lradius
    lradius lwrist
    lwrist lhand lthumb
    lhand lfingers
    rclavicle rhumerus
    rhumerus rradius
    rradius rwrist
    rwrist rhand rthumb
    rhand rfingers
  end

#!OML:ASF E:\pregnant2\Project 1\Capture day 1\Session 1\pregnant2.ASF
:FULLY-SPECIFIED
:DEGREES
1850
root -9.85345 6.44853 23.7355 -75.5007 -69.8017 123.475
lowerback -0.976308 -3.29804 -0.696871
upperback -7.8906 -4.63244 1.44831
thorax -7.51714 -2.31647 2.17264
lowerneck -15.3838 2.68976 -1.2317
upperneck 40.8138 3.69547 -3.92232
head 17.7881 0.128606 -1.08831
rclavicle 8.74653e-015 5.56597e-014
rhumerus -14.3361 12.1647 -75.8907
rradius 24.974
rwrist 1.48438
rhand -44.6744 -71.1891
rfingers 7.12502
rthumb 162.53 -79.5759
lclavicle 8.74653e-015 5.56597e-014
lhumerus 2.81218 -31.7633 86.3636
lradius 19.3518
lwrist 3.40089
lhand -16.1705 31.3661
lfingers 7.12502
lthumb 190.036 -118.893
rfemur -115.696 27.7283 55.8619
rtibia 131.946
rfoot 30.0634 -4.26197
rtoes 49.7729
lfemur -96.239 53.0655 -12.2179
ltibia 134.842
lfoot -26.6744 -8.14381
ltoes -35.2244
1851
root -9.87428 6.49017 23.772 -75.5169 -69.582 123.831
lowerback -0.962873 -3.28683 -0.660396
upperback -7.89332 -4.61435 1.47659
thorax -7.529 -2.30867 2.18227
lowerneck -15.4214 2.73622 -1.10068
upperneck 40.7454 3.77919 -4.04257
head 17.769 0.170844 -1.14852
rclavicle 2.06736e-014 -2.8625e-014
rhumerus -13.8811 11.9831 -75.5103
rradius 24.7125
rwrist 1.72363
rhand -44.6322 -71.0224
rfingers 7.12502
rthumb 162.57 -79.739
lclavicle 2.06736e-014 -2.8625e-014
lhumerus 3.08995 -31.9963 86.4406
lradius 19.3165
lwrist 3.92257
lhand -16.2698 31.5772
lfingers 7.12502
lthumb 189.94 -118.677
rfemur -116.026 27.3614 55.4082
rtibia 132.019
rfoot 30.0986 -3.99399
rtoes 49.8501
lfemur -96.2609 52.3173 -12.6471
ltibia 134.735
lfoot -26.5558 -8.02424
ltoes -35.3658
1852
root -9.89534 6.53217 23.8134 -75.2292 -69.3405 123.89
lowerback -0.962007 -3.30742 -0.572778
upperback -7.91241 -4.63865 1.49986
thorax -7.55421 -2.32576 2.16067
lowerneck -15.4704 2.78155 -0.962475
upperneck 40.6901 3.86418 -4.17889
head 17.762 0.21154 -1.21776
rclavicle -2.14687e-014 6.36111e-015
rhumerus -13.4156 11.766 -75.1192
rradius 24.4269
rwrist 1.99221
rhand -44.5924 -70.8661
rfingers 7.12502
rthumb 162.609 -79.8919
lclavicle -2.14687e-014 6.36111e-015
lhumerus 3.36024 -32.1803 86.5448
lradius 19.2583
lwrist 4.39084
lhand -16.391 31.7601
lfingers 7.12502
lthumb 189.823 -118.489
rfemur -116.483 26.7306 54.7322
rtibia 132.148
rfoot 30.2006 -3.57928
rtoes 50.0787
lfemur -96.359 51.3259 -13.1106
ltibia 134.638
lfoot -26.3647 -7.84514
ltoes -35.5029
1853
root -9.91648 6.574 23.8521 -75.1102 -69.1151 124.121
lowerback -0.955699 -3.31348 -0.509647
upperback -7.93094 -4.64406 1.52579
thorax -7.58059 -2.33174 2.15478
lowerneck -15.517 2.82823 -0.833064
upperneck 40.6347 3.9465 -4.29738
head 17.7535 0.252164 -1.2776
rclavicle 8.42847e-014 4.13472e-014
rhumerus -12.95 11.5494 -74.747
rradius 24.132
rwrist 2.26128
rhand -44.5601 -70.7161
rfingers 7.12502
rthumb 162.64 -80.0392
lclavicle 8.42847e-014 4.13472e-014
lhumerus 3.60003 -32.5465 86.6117
lradius 19.2599
lwrist 4.84586
lhand -16.6261 32.2054
lfingers 7.12502
lthumb 189.596 -118.033
rfemur -116.835 26.0793 54.0392
rtibia 132.228
rfoot 30.3749 -3.15805
rtoes 50.2777
lfemur -96.3777 50.4397 -13.5071
ltibia 134.517
lfoot -26.2235 -7.7127
ltoes -35.6385
1854
root -9.93768 6.61573 23.889 -75.1195 -68.8974 124.478
lowerback -0.941514 -3.30591 -0.483487
upperback -7.94711 -4.6317 1.55943
thorax -7.6061 -2.32608 2.17684
lowerneck -15.5604 2.86909 -0.730229
upperneck 40.575 4.01857 -4.38985
head 17.7399 0.288368 -1.32225
rclavicle 3.10104e-014 1.59028e-015
rhumerus -12.4777 11.2981 -74.374
rradius 23.8241
rwrist 2.56228
rhand -44.5242 -70.5995
rfingers 7.12502
rthumb 162.674 -80.1528
lclavicle 3.10104e-014 1.59028e-015
lhumerus 3.83829 -32.9889 86.6937
lradius 19.2648
lwrist 5.1984
lhand -16.9501 32.8485
lfingers 7.12502
lthumb 189.283 -117.376
rfemur -117.091 25.4114 53.3642
rtibia 132.244
rfoot 30.6493 -2.75906
rtoes 50.4608
lfemur -96.3302 49.6229 -13.8481
ltibia 134.376
lfoot -26.1129 -7.61848
ltoes -35.7557
1855
root -9.95852 6.65806 23.9233 -75.2008 -68.6837 124.908
lowerback -0.923764 -3.28895 -0.479717
upperback -7.96313 -4.6073 1.59549
thorax -7.63204 -2.31284 2.21341
lowerneck -15.5936 2.90274 -0.661661
upperneck 40.5042 4.07729 -4.44647
head 17.7142 0.319522 -1.34609
rclavicle -5.88403e-014 -8.5875e-014
rhumerus -12.0026 10.9966 -74.002
rradius 23.5034
rwrist 2.91838
rhand -44.4781 -70.4549
rfingers 7.12502
rthumb 162.719 -80.2935
lclavicle -5.88403e-014 -8.5875e-014
lhumerus 4.05699 -33.6396 86.7451
lradius 19.344
lwrist 5.63155
lhand -17.4003 33.7536
lfingers 7.12502
lthumb 188.849 -116.452
rfemur -117.287 24.7773 52.8396
rtibia 132.155
rfoot 31.0677 -2.48871
rtoes 50.5912
lfemur -96.2415 48.836 -14.1496
ltibia 134.209
lfoot -26.0065 -7.54423
ltoes -35.8672
1856
root -9.97923 6.70025 23.9566 -75.3052 -68.4674 125.362
lowerback -0.90577 -3.26727 -0.472371
upperback -7.97951 -4.57737 1.61775
thorax -7.66016 -2.2976 2.23336
lowerneck -15.624 2.93127 -0.611896
upperneck 40.4253 4.12045 -4.46519
head 17.6804 0.347377 -1.35146
rclavicle 2.46493e-014 1.74931e-014
rhumerus -11.5373 10.678 -73.6495
rradius 23.1869
rwrist 3.28049
rhand -44.4271 -70.2978
rfingers 7.12502
rthumb 162.768 -80.4463
lclavicle 2.46493e-014 1.74931e-014
lhumerus 4.26245 -34.446 86.7446
lradius 19.4865
lwrist 6.14492
lhand -17.9018 34.7886
lfingers 7.12502
lthumb 188.365 -115.397
rfemur -117.465 24.1834 52.3988
rtibia 132.021
rfoot 31.5366 -2.32282
rtoes 50.7165
lfemur -96.1374 48.0557 -14.4359
ltibia 134.029
lfoot -25.9066 -7.46062
ltoes -35.9703
1857
root -9.99967 6.74229 23.9894 -75.4034 -68.2472 125.812
lowerback -0.886925 -3.24566 -0.475186
upperback -7.99833 -4.54798 1.64064
thorax -7.69063 -2.28195 2.2598
lowerneck -15.6507 2.95686 -0.579411
upperneck 40.3365 4.15957 -4.46812
head 17.6387 0.373654 -1.34676
rclavicle 9.54166e-015 6.36111e-014
rhumerus -11.076 10.3468 -73.2973
rradius 22.8731
rwrist 3.65748
rhand -44.3734 -70.1168
rfingers 7.12502
rthumb 162.819 -80.6227
lclavicle 9.54166e-015 6.36111e-014
lhumerus 4.47099 -35.2242 86.7363
lradius 19.628
lwrist 6.64817
lhand -18.3422 35.7454
lfingers 7.12502
lthumb 187.94 -114.424
rfemur -117.628 23.6522 52.0818
rtibia 131.836
rfoot 32.0234 -2.2484
rtoes 50.8537
lfemur -96.0308 47.2652 -14.7116
ltibia 133.837
lfoot -25.8035 -7.37487
ltoes -36.0648
1858
root -10.0199 6.78379 24.0221 -75.4904 -68.0216 126.256
lowerback -0.886612 -3.21651 -0.347438
upperback -8.01329 -4.51067 1.56056
thorax -7.72451 -2.2752 2.10474
lowerneck -15.6859 2.98676 -0.45987
upperneck 40.2499 4.16053 -4.42856
head 17.5995 0.404507 -1.3452
rclavicle -3.81667e-014 -6.36111e-015
rhumerus -10.6496 9.86991 -73.0858
rradius 22.5444
rwrist 4.08603
rhand -44.3205 -69.9309
rfingers 7.12502
rthumb 162.87 -80.8043
lclavicle -3.81667e-014 -6.36111e-015
lhumerus 4.6926 -36.0305 86.5892
lradius 19.7711
lwrist 7.18802
lhand -18.6495 36.4933
lfingers 7.12502
lthumb 187.643 -113.665
rfemur -117.776 23.1904 51.8545
rtibia 131.628
rfoot 32.486 -2.23162
rtoes 50.988
lfemur -95.9307 46.4719 -14.9879
ltibia 133.638
lfoot -25.7053 -7.28381
ltoes -36.1467
1859
root -10.0399 6.82434 24.0561 -75.5379 -67.7927 126.666
lowerback -0.897556 -3.18947 -0.105918
upperback -8.02909 -4.47743 1.40715
thorax -7.76698 -2.28119 1.80993
lowerneck -15.74 3.02764 -0.273164
upperneck 40.1698 4.15164 -4.37551
head 17.5697 0.44347 -1.35153
rclavicle 2.06736e-014 3.65764e-014
rhumerus -10.2365 9.25232 -72.9818
rradius 22.1864
rwrist 4.60206
rhand -44.2698 -69.7016
rfingers 7.12502
rthumb 162.919 -81.0293
lclavicle 2.06736e-014 3.65764e-014
lhumerus 4.92843 -36.611 86.3669
lradius 19.8419
lwrist 7.68317
lhand -18.7044 36.7219
lfingers 7.12502
lthumb 187.59 -113.434
rfemur -117.917 22.8073 51.707
rtibia 131.423
rfoot 32.8785 -2.2484
rtoes 51.0857
lfemur -95.8557 45.6618 -15.2739
ltibia 133.439
lfoot -25.6194 -7.1785
ltoes -36.2485
1860
root -10.0598 6.86372 24.0916 -75.5574 -67.5592 127.058
lowerback -0.920791 -3.15531 0.240192
upperback -8.04416 -4.4367 1.17533
thorax -7.81587 -2.29403 1.3745
lowerneck -15.8157 3.07144 -0.0121212
upperneck 40.0947 4.11755 -4.30659
head 17.549 0.486001 -1.36872
rclavicle -5.725e-014 6.52014e-014
rhumerus -9.83904 8.4598 -72.9828
rradius 21.7931
rwrist 5.21459
rhand -44.2246 -69.4565
rfingers 7.12502
rthumb 162.963 -81.2706
lclavicle -5.725e-014 6.52014e-014
lhumerus 5.18129 -37.0524 86.0759
lradius 19.8515
lwrist 8.11427
lhand -18.5609 36.5238
lfingers 7.12502
lthumb 187.729 -113.637
rfemur -118.045 22.4607 51.5628
rtibia 131.241
rfoot 33.2012 -2.33244
rtoes 51.1667
lfemur -95.8054 44.8427 -15.569
ltibia 133.242
lfoot -25.5457 -7.08087
ltoes -36.349
